<?xml version="1.0" encoding="UTF-8" standalone="no"?>
<!DOCTYPE svg PUBLIC "-//W3C//DTD SVG 1.1//EN"
 "http://www.w3.org/Graphics/SVG/1.1/DTD/svg11.dtd">
<!-- Generated by graphviz version 12.0.0 (20240704.0754)
 -->
<!-- Title: G Pages: 1 -->
<svg width="537pt" height="125pt"
 viewBox="0.00 0.00 536.50 125.00" xmlns="http://www.w3.org/2000/svg" xmlns:xlink="http://www.w3.org/1999/xlink">
<g id="graph0" class="graph" transform="scale(1 1) rotate(0) translate(4 121)">
<title>G</title>
<polygon fill="white" stroke="none" points="-4,4 -4,-121 532.5,-121 532.5,4 -4,4"/>
<!-- aws_eip.lb -->
<g id="node1" class="node">
<title>aws_eip.lb</title>
<polygon fill="none" stroke="black" points="135.62,-90 55.88,-90 55.88,-54 135.62,-54 135.62,-90"/>
<text text-anchor="middle" x="95.75" y="-66.2" font-family="sans-serif" font-size="14.00">aws_eip.lb</text>
</g>
<!-- aws_instance.web -->
<g id="node2" class="node">
<title>aws_instance.web</title>
<polygon fill="none" stroke="black" points="441.12,-117 314.88,-117 314.88,-81 441.12,-81 441.12,-117"/>
<text text-anchor="middle" x="378" y="-93.2" font-family="sans-serif" font-size="14.00">aws_instance.web</text>
</g>
<!-- aws_security_group.example -->
<g id="node3" class="node">
<title>aws_security_group.example</title>
<polygon fill="none" stroke="black" points="191.5,-36 0,-36 0,0 191.5,0 191.5,-36"/>
<text text-anchor="middle" x="95.75" y="-12.2" font-family="sans-serif" font-size="14.00">aws_security_group.example</text>
</g>
<!-- aws_vpc_security_group_ingress_rule.example -->
<g id="node4" class="node">
<title>aws_vpc_security_group_ingress_rule.example</title>
<polygon fill="none" stroke="black" points="528.5,-63 227.5,-63 227.5,-27 528.5,-27 528.5,-63"/>
<text text-anchor="middle" x="378" y="-39.2" font-family="sans-serif" font-size="14.00">aws_vpc_security_group_ingress_rule.example</text>
</g>
<!-- aws_vpc_security_group_ingress_rule.example&#45;&gt;aws_eip.lb -->
<g id="edge1" class="edge">
<title>aws_vpc_security_group_ingress_rule.example&#45;&gt;aws_eip.lb</title>
<path fill="none" stroke="black" d="M227.03,-59.45C198.33,-62.21 170.18,-64.93 147.43,-67.12"/>
<polygon fill="black" stroke="black" points="147.18,-63.63 137.56,-68.07 147.85,-70.59 147.18,-63.63"/>
</g>
<!-- aws_vpc_security_group_ingress_rule.example&#45;&gt;aws_security_group.example -->
<g id="edge2" class="edge">
<title>aws_vpc_security_group_ingress_rule.example&#45;&gt;aws_security_group.example</title>
<path fill="none" stroke="black" d="M227.03,-30.55C218.99,-29.78 210.98,-29.01 203.13,-28.25"/>
<polygon fill="black" stroke="black" points="203.55,-24.77 193.26,-27.3 202.88,-31.74 203.55,-24.77"/>
</g>
</g>
</svg>
